<?xml version="1.0" encoding="UTF-8"?>
<svg xmlns="http://www.w3.org/2000/svg" width="300" height="300" viewBox="0 0 300 300">
  <rect width="300" height="300" fill="#f5f5f5"/>
  <path d="M177.45,152.83c-.12-13.39,10.93-19.86,11.44-20.18-6.24-9.12-15.93-10.37-19.38-10.48-8.19-.84-16.05,4.85-20.21,4.85-4.17,0-10.55-4.74-17.39-4.61-8.94.13-17.22,5.22-21.81,13.24-9.35,16.19-2.39,40.06,6.65,53.19,4.48,6.45,9.77,13.68,16.75,13.42,6.75-.27,9.28-4.34,17.42-4.34,8.14,0,10.47,4.34,17.59,4.2,7.27-.12,11.87-6.56,16.27-13.06,5.21-7.55,7.34-14.9,7.45-15.27C192.02,173.67,177.58,168.77,177.45,152.83ZM165.02,115.51c3.68-4.5,6.18-10.72,5.49-16.94-5.32.22-11.92,3.56-15.75,8-3.41,3.96-6.44,10.37-5.65,16.45C155.26,123.46,161.28,120.01,165.02,115.51Z" fill="#2c2c2c"/>
  <text x="150" y="250" font-family="Arial, sans-serif" font-size="24" fill="#333" text-anchor="middle">iPhone</text>
</svg>