<?xml version="1.0" encoding="UTF-8"?>
<svg xmlns="http://www.w3.org/2000/svg" width="300" height="300" viewBox="0 0 300 300">
  <rect width="300" height="300" fill="#f5f5f5"/>
  <path d="M228,165.5v-26.3c0-43.5-35-78.5-78.5-78.5s-78.5,35-78.5,78.5v26.3c-7.2,2.1-12.5,8.8-12.5,16.7v23.6c0,9.6,7.9,17.5,17.5,17.5h25c9.6,0,17.5-7.9,17.5-17.5v-45c0-9.6-7.9-17.5-17.5-17.5h-5v-4.1c0-30,24.3-54.3,54.3-54.3c30,0,54.3,24.3,54.3,54.3v4.1h-5c-9.6,0-17.5,7.9-17.5,17.5v45c0,9.6,7.9,17.5,17.5,17.5h7.1v10c0,8.6-7,15.6-15.6,15.6h-18.8c-2.2-6.1-8-10.6-14.9-10.6s-12.7,4.5-14.9,10.6c-2.4,6.7,0.5,13.8,6.3,18c3.1,2.2,6.8,3.4,10.7,3.4c4.1,0,8.1-1.3,11.3-3.7c1.1-0.8,2.1-1.7,2.9-2.7h17.3c15.8,0,28.6-12.8,28.6-28.6v-23.1h1.4c9.6,0,17.5-7.9,17.5-17.5v-23.6C240.5,174.3,235.2,167.6,228,165.5z M101,160.8v45c0,1.9-1.6,3.5-3.5,3.5h-25c-1.9,0-3.5-1.6-3.5-3.5v-23.6c0-1.9,1.6-3.5,3.5-3.5h25c1.9,0,3.5-1.6,3.5-3.5V160.8z M231.5,205.8c0,1.9-1.6,3.5-3.5,3.5h-25c-1.9,0-3.5-1.6-3.5-3.5v-45c0-1.9,1.6-3.5,3.5-3.5h25c1.9,0,3.5,1.6,3.5,3.5V205.8z" fill="#333"/>
  <text x="150" y="270" font-family="Arial, sans-serif" font-size="24" fill="#333" text-anchor="middle">Auriculares</text>
</svg>