<?xml version="1.0" encoding="UTF-8"?>
<svg xmlns="http://www.w3.org/2000/svg" width="300" height="300" viewBox="0 0 300 300">
  <rect width="300" height="300" fill="#f5f5f5"/>
  <path d="M231.8,115H68.2c-6.6,0-12,5.4-12,12v60c0,6.6,5.4,12,12,12h163.6c6.6,0,12-5.4,12-12v-60C243.8,120.4,238.4,115,231.8,115z M89.35,131h12c1.65,0,3,1.35,3,3v12c0,1.65-1.35,3-3,3h-12c-1.65,0-3-1.35-3-3v-12C86.35,132.35,87.7,131,89.35,131z M89.35,158h12c1.65,0,3,1.35,3,3v12c0,1.65-1.35,3-3,3h-12c-1.65,0-3-1.35-3-3v-12C86.35,159.35,87.7,158,89.35,158z M186.75,185h-73.5c-1.65,0-3-1.35-3-3v-6c0-1.65,1.35-3,3-3h73.5c1.65,0,3,1.35,3,3v6C189.75,183.65,188.4,185,186.75,185z M116.35,158h12c1.65,0,3,1.35,3,3v12c0,1.65-1.35,3-3,3h-12c-1.65,0-3-1.35-3-3v-12C113.35,159.35,114.7,158,116.35,158z M116.35,131h12c1.65,0,3,1.35,3,3v12c0,1.65-1.35,3-3,3h-12c-1.65,0-3-1.35-3-3v-12C113.35,132.35,114.7,131,116.35,131z M143.35,158h12c1.65,0,3,1.35,3,3v12c0,1.65-1.35,3-3,3h-12c-1.65,0-3-1.35-3-3v-12C140.35,159.35,141.7,158,143.35,158z M143.35,131h12c1.65,0,3,1.35,3,3v12c0,1.65-1.35,3-3,3h-12c-1.65,0-3-1.35-3-3v-12C140.35,132.35,141.7,131,143.35,131z M170.35,158h12c1.65,0,3,1.35,3,3v12c0,1.65-1.35,3-3,3h-12c-1.65,0-3-1.35-3-3v-12C167.35,159.35,168.7,158,170.35,158z M170.35,131h12c1.65,0,3,1.35,3,3v12c0,1.65-1.35,3-3,3h-12c-1.65,0-3-1.35-3-3v-12C167.35,132.35,168.7,131,170.35,131z M197.35,158h12c1.65,0,3,1.35,3,3v12c0,1.65-1.35,3-3,3h-12c-1.65,0-3-1.35-3-3v-12C194.35,159.35,195.7,158,197.35,158z M197.35,131h12c1.65,0,3,1.35,3,3v12c0,1.65-1.35,3-3,3h-12c-1.65,0-3-1.35-3-3v-12C194.35,132.35,195.7,131,197.35,131z" fill="#333"/>
  <text x="150" y="230" font-family="Arial, sans-serif" font-size="24" fill="#333" text-anchor="middle">Teclado</text>
</svg>