<?xml version="1.0" encoding="UTF-8"?>
<svg xmlns="http://www.w3.org/2000/svg" width="300" height="300" viewBox="0 0 300 300">
  <rect width="300" height="300" fill="#f5f5f5"/>
  <path d="M239.5,100h-179c-4.4,0-8,3.6-8,8v110c0,4.4,3.6,8,8,8h67.4v15h-16.8c-2.2,0-4,1.8-4,4s1.8,4,4,4h77.8c2.2,0,4-1.8,4-4s-1.8-4-4-4h-16.8v-15h67.4c4.4,0,8-3.6,8-8V108C247.5,103.6,243.9,100,239.5,100z M235.5,214h-171V112h171V214z" fill="#333"/>
  <text x="150" y="240" font-family="Arial, sans-serif" font-size="24" fill="#333" text-anchor="middle">Monitor</text>
</svg>