<?xml version="1.0" encoding="UTF-8"?>
<svg xmlns="http://www.w3.org/2000/svg" width="300" height="300" viewBox="0 0 300 300">
  <rect width="300" height="300" fill="#f5f5f5"/>
  <path d="M150,100c-27.6,0-50,22.4-50,50v50c0,27.6,22.4,50,50,50s50-22.4,50-50v-50C200,122.4,177.6,100,150,100z M190,150h-32v-42.1c18.6,3.6,32,20.1,32,39.1V150z M150,106c1.7,0,3.4,0.1,5,0.3V150h-10v-43.7C146.6,106.1,148.3,106,150,106z M142,108.3V150h-32v-3.1C110,128,124.4,111.9,142,108.3z M150,240c-22.1,0-40-17.9-40-40v-40h80v40C190,222.1,172.1,240,150,240z" fill="#333"/>
  <text x="150" y="270" font-family="Arial, sans-serif" font-size="24" fill="#333" text-anchor="middle">Ratón</text>
</svg>