<?xml version="1.0" encoding="UTF-8"?>
<svg xmlns="http://www.w3.org/2000/svg" width="300" height="300" viewBox="0 0 300 300">
  <rect width="300" height="300" fill="#f5f5f5"/>
  <path d="M190.82,136.44c-5.64,0-10.27,4.63-10.27,10.27c0,5.64,4.63,10.27,10.27,10.27c5.64,0,10.27-4.63,10.27-10.27 C201.09,141.07,196.46,136.44,190.82,136.44z M157.56,136.44c-5.64,0-10.27,4.63-10.27,10.27c0,5.64,4.63,10.27,10.27,10.27 c5.64,0,10.27-4.63,10.27-10.27C167.83,141.07,163.19,136.44,157.56,136.44z M124.29,136.44c-5.64,0-10.27,4.63-10.27,10.27 c0,5.64,4.63,10.27,10.27,10.27c5.64,0,10.27-4.63,10.27-10.27C134.56,141.07,129.93,136.44,124.29,136.44z M224.09,119.2 c0-11.89-9.66-21.55-21.55-21.55H97.46c-11.89,0-21.55,9.66-21.55,21.55v61.59c0,11.89,9.66,21.55,21.55,21.55h105.08 c11.89,0,21.55-9.66,21.55-21.55V119.2z M214.82,119.2v61.59c0,6.78-5.51,12.29-12.29,12.29H97.46c-6.78,0-12.29-5.51-12.29-12.29 V119.2c0-6.78,5.51-12.29,12.29-12.29h105.08C209.31,106.91,214.82,112.42,214.82,119.2z" fill="#1428a0"/>
  <text x="150" y="220" font-family="Arial, sans-serif" font-size="24" fill="#333" text-anchor="middle">Samsung Galaxy</text>
</svg>