<?xml version="1.0" encoding="UTF-8"?>
<svg xmlns="http://www.w3.org/2000/svg" width="300" height="300" viewBox="0 0 300 300">
  <rect width="300" height="300" fill="#f5f5f5"/>
  <path d="M236,106H64c-4.4,0-8,3.6-8,8v12h188v-12C244,109.6,240.4,106,236,106z" fill="#333"/>
  <path d="M236,134H64c-4.4,0-8,3.6-8,8v12h188v-12C244,137.6,240.4,134,236,134z" fill="#333"/>
  <path d="M236,162H64c-4.4,0-8,3.6-8,8v60c0,4.4,3.6,8,8,8h172c4.4,0,8-3.6,8-8v-60C244,165.6,240.4,162,236,162z M150,220c-13.3,0-24-10.7-24-24s10.7-24,24-24s24,10.7,24,24S163.3,220,150,220z M150,184c-6.6,0-12,5.4-12,12s5.4,12,12,12s12-5.4,12-12S156.6,184,150,184z" fill="#333"/>
  <text x="150" y="270" font-family="Arial, sans-serif" font-size="24" fill="#333" text-anchor="middle">Almacenamiento</text>
</svg>